<svg width="134" height="45" viewBox="0 0 134 45" fill="none" xmlns="http://www.w3.org/2000/svg">
<path d="M123.391 4.5498H14.5508C9.02793 4.5498 4.55078 9.02696 4.55078 14.5498V34.1198C4.55078 39.6427 9.02793 44.1198 14.5508 44.1198H123.391C128.914 44.1198 133.391 39.6427 133.391 34.1198V14.5498C133.391 9.02696 128.914 4.5498 123.391 4.5498Z" fill="#191919"/>
<path d="M119.401 0.560059H10.5605C5.0377 0.560059 0.560547 5.03721 0.560547 10.5601V30.13C0.560547 35.6529 5.0377 40.13 10.5605 40.13H119.401C124.923 40.13 129.401 35.6529 129.401 30.13V10.5601C129.401 5.03721 124.923 0.560059 119.401 0.560059Z" fill="#EAFF38" stroke="#191919" stroke-width="1.12" stroke-miterlimit="10"/>
<path d="M60.9738 23.3792C61.6013 23.3792 62.058 23.2731 62.344 23.0609C62.63 22.8487 62.773 22.5488 62.773 22.1613C62.773 21.9306 62.7223 21.7323 62.6208 21.5662C62.5285 21.4001 62.3901 21.2525 62.2056 21.1233C62.0303 20.9849 61.8135 20.8603 61.5551 20.7496C61.2968 20.6297 61.0015 20.5143 60.6694 20.4036C60.3372 20.2837 60.0143 20.1545 59.7006 20.0161C59.3961 19.8685 59.1239 19.6885 58.884 19.4763C58.6533 19.2641 58.4642 19.0104 58.3166 18.7151C58.1782 18.4199 58.109 18.0647 58.109 17.6495C58.109 16.7821 58.4088 16.104 59.0086 15.615C59.6083 15.1167 60.4249 14.8676 61.4582 14.8676C62.058 14.8676 62.5885 14.9368 63.0498 15.0752C63.5204 15.2044 63.8895 15.3474 64.157 15.5043L63.6173 16.9159C63.3036 16.7406 62.9576 16.6068 62.5793 16.5146C62.2102 16.4223 61.8273 16.3762 61.4306 16.3762C60.96 16.3762 60.5909 16.4731 60.3234 16.6668C60.065 16.8606 59.9358 17.1328 59.9358 17.4834C59.9358 17.6956 59.9774 17.8801 60.0604 18.037C60.1527 18.1846 60.2772 18.3184 60.4341 18.4383C60.6002 18.5583 60.7893 18.669 61.0015 18.7705C61.223 18.872 61.4629 18.9689 61.7212 19.0611C62.1733 19.2272 62.5747 19.3979 62.9253 19.5732C63.2851 19.7393 63.585 19.9423 63.8249 20.1822C64.074 20.4128 64.2631 20.6896 64.3923 21.0126C64.5215 21.3263 64.5861 21.7092 64.5861 22.1613C64.5861 23.0286 64.277 23.7021 63.6588 24.1819C63.0498 24.6525 62.1549 24.8878 60.9738 24.8878C60.5771 24.8878 60.2126 24.8601 59.8805 24.8047C59.5575 24.7586 59.2669 24.6986 59.0086 24.6248C58.7594 24.551 58.5426 24.4772 58.3581 24.4034C58.1735 24.3203 58.0259 24.2465 57.9152 24.1819L58.4273 22.7564C58.6764 22.8948 59.0132 23.0332 59.4376 23.1716C59.862 23.31 60.3741 23.3792 60.9738 23.3792ZM71.9772 24.4587C71.6542 24.5418 71.2344 24.6248 70.7177 24.7079C70.201 24.8001 69.6336 24.8463 69.0154 24.8463C68.4341 24.8463 67.9451 24.7632 67.5484 24.5971C67.1609 24.4311 66.8472 24.2004 66.6073 23.9051C66.3766 23.6099 66.2105 23.2593 66.109 22.8533C66.0075 22.4381 65.9568 21.986 65.9568 21.497V17.4419H67.6314V21.234C67.6314 22.0091 67.7421 22.5627 67.9636 22.8948C68.1942 23.227 68.591 23.3931 69.1538 23.3931C69.3568 23.3931 69.569 23.3838 69.7905 23.3654C70.0211 23.3469 70.1918 23.3239 70.3025 23.2962V17.4419H71.9772V24.4587ZM78.233 20.8742C78.233 20.1176 78.1361 19.5732 77.9423 19.2411C77.7578 18.8997 77.4072 18.729 76.8905 18.729C76.706 18.729 76.503 18.7428 76.2815 18.7705C76.0601 18.7982 75.894 18.8212 75.7833 18.8397V24.6802H74.1086V17.6771C74.4316 17.5849 74.8514 17.4972 75.3681 17.4142C75.894 17.3311 76.4476 17.2896 77.0289 17.2896C77.5271 17.2896 77.9331 17.3542 78.2468 17.4834C78.5697 17.6125 78.8373 17.7832 79.0495 17.9955C79.151 17.9216 79.2802 17.8432 79.437 17.7602C79.5939 17.6771 79.7692 17.6033 79.963 17.5387C80.1567 17.4649 80.3597 17.4049 80.5719 17.3588C80.7934 17.3127 81.0148 17.2896 81.2362 17.2896C81.7991 17.2896 82.2604 17.3727 82.6202 17.5387C82.9893 17.6956 83.2753 17.9216 83.4783 18.2169C83.6905 18.5029 83.8336 18.8535 83.9074 19.2687C83.9904 19.6747 84.0319 20.1222 84.0319 20.6112V24.6802H82.3573V20.8742C82.3573 20.1176 82.265 19.5732 82.0805 19.2411C81.896 18.8997 81.5407 18.729 81.0148 18.729C80.7472 18.729 80.4935 18.7751 80.2536 18.8674C80.0137 18.9504 79.8338 19.0335 79.7138 19.1165C79.7877 19.3472 79.8384 19.5917 79.8661 19.85C79.8938 20.1084 79.9076 20.3852 79.9076 20.6804V24.6802H78.233V20.8742ZM88.6301 23.5038C89.1467 23.5038 89.5389 23.4761 89.8065 23.4207V21.5662C89.7142 21.5385 89.5804 21.5108 89.4051 21.4831C89.2298 21.4555 89.036 21.4416 88.8238 21.4416C88.6393 21.4416 88.4501 21.4555 88.2564 21.4831C88.0718 21.5108 87.9011 21.5616 87.7443 21.6354C87.5967 21.7092 87.4767 21.8153 87.3845 21.9537C87.2922 22.0829 87.2461 22.2489 87.2461 22.4519C87.2461 22.8487 87.3706 23.1255 87.6197 23.2823C87.8689 23.43 88.2056 23.5038 88.6301 23.5038ZM88.4917 17.2619C89.0453 17.2619 89.5112 17.3311 89.8895 17.4695C90.2678 17.6079 90.5677 17.8017 90.7891 18.0508C91.0198 18.2999 91.1812 18.6044 91.2735 18.9643C91.375 19.3149 91.4257 19.7024 91.4257 20.1268V24.5141C91.1674 24.5695 90.7753 24.634 90.2493 24.7079C89.7326 24.7909 89.1467 24.8324 88.4917 24.8324C88.058 24.8324 87.6613 24.7909 87.3014 24.7079C86.9416 24.6248 86.6325 24.491 86.3741 24.3065C86.125 24.122 85.9266 23.8821 85.779 23.5868C85.6406 23.2916 85.5714 22.9271 85.5714 22.4935C85.5714 22.0783 85.6498 21.7276 85.8067 21.4416C85.9728 21.1556 86.1942 20.9249 86.471 20.7496C86.7478 20.5651 87.0661 20.4359 87.426 20.3621C87.795 20.2791 88.1779 20.2375 88.5747 20.2375C88.7592 20.2375 88.953 20.2514 89.156 20.2791C89.359 20.2975 89.5758 20.3344 89.8065 20.3898V20.113C89.8065 19.9192 89.7834 19.7347 89.7373 19.5594C89.6911 19.3841 89.6081 19.2318 89.4881 19.1027C89.3774 18.9643 89.2252 18.8581 89.0314 18.7843C88.8469 18.7105 88.6116 18.6736 88.3256 18.6736C87.9381 18.6736 87.5828 18.7013 87.2599 18.7567C86.937 18.812 86.674 18.8766 86.471 18.9504L86.2634 17.5941C86.4756 17.5203 86.7847 17.4465 87.1907 17.3727C87.5967 17.2988 88.0303 17.2619 88.4917 17.2619ZM93.3935 15.5319L95.0681 15.2551V17.4419H97.6424V18.8397H95.0681V21.7876C95.0681 22.3689 95.1604 22.7841 95.3449 23.0332C95.5295 23.2823 95.8432 23.4069 96.2861 23.4069C96.5905 23.4069 96.8581 23.3746 97.0888 23.31C97.3287 23.2454 97.5178 23.1855 97.6562 23.1301L97.933 24.4587C97.7393 24.5418 97.4855 24.6248 97.1718 24.7079C96.8581 24.8001 96.489 24.8463 96.0646 24.8463C95.5479 24.8463 95.1143 24.7771 94.7637 24.6387C94.4223 24.5003 94.1501 24.3019 93.9471 24.0435C93.7441 23.776 93.6011 23.4576 93.5181 23.0886C93.435 22.7103 93.3935 22.2812 93.3935 21.8015V15.5319ZM98.7382 21.0956C98.7382 20.459 98.8305 19.9008 99.015 19.421C99.2088 18.9412 99.4625 18.5444 99.7762 18.2307C100.09 17.9078 100.45 17.6679 100.856 17.5111C101.262 17.345 101.677 17.2619 102.101 17.2619C103.098 17.2619 103.873 17.571 104.426 18.1892C104.989 18.8074 105.271 19.7301 105.271 20.9572C105.271 21.0495 105.266 21.1556 105.257 21.2755C105.257 21.3863 105.252 21.4877 105.243 21.58H100.468C100.514 22.1613 100.717 22.6134 101.077 22.9363C101.446 23.25 101.977 23.4069 102.669 23.4069C103.075 23.4069 103.444 23.37 103.776 23.2962C104.117 23.2224 104.385 23.1439 104.579 23.0609L104.8 24.4311C104.708 24.4772 104.579 24.5279 104.413 24.5833C104.256 24.6294 104.071 24.6709 103.859 24.7079C103.656 24.754 103.435 24.7909 103.195 24.8186C102.955 24.8463 102.71 24.8601 102.461 24.8601C101.825 24.8601 101.271 24.7678 100.8 24.5833C100.33 24.3895 99.9423 24.1266 99.6378 23.7944C99.3333 23.453 99.1073 23.0563 98.9597 22.6042C98.812 22.1428 98.7382 21.64 98.7382 21.0956ZM103.596 20.3483C103.596 20.1176 103.564 19.9008 103.499 19.6978C103.435 19.4856 103.338 19.3056 103.209 19.158C103.089 19.0012 102.936 18.8812 102.752 18.7982C102.577 18.7059 102.364 18.6598 102.115 18.6598C101.857 18.6598 101.631 18.7105 101.437 18.812C101.243 18.9043 101.077 19.0288 100.939 19.1857C100.81 19.3425 100.708 19.5225 100.634 19.7255C100.56 19.9284 100.51 20.136 100.482 20.3483H103.596ZM108.998 17.6633C108.998 18.4291 108.97 19.1303 108.915 19.767C108.859 20.4036 108.79 21.0449 108.707 21.6907H107.517C107.425 21.0449 107.351 20.4036 107.295 19.767C107.24 19.1211 107.212 18.4199 107.212 17.6633V15.0891H108.998V17.6633ZM109.205 23.7667C109.205 24.0897 109.099 24.3526 108.887 24.5556C108.675 24.7586 108.412 24.8601 108.098 24.8601C107.794 24.8601 107.531 24.7586 107.309 24.5556C107.097 24.3526 106.991 24.0897 106.991 23.7667C106.991 23.4438 107.097 23.1808 107.309 22.9779C107.531 22.7656 107.794 22.6595 108.098 22.6595C108.412 22.6595 108.675 22.7656 108.887 22.9779C109.099 23.1808 109.205 23.4438 109.205 23.7667Z" fill="#191919"/>
<path d="M17.9302 13.4401H16.2402V28.3401H17.9302V29.9401H44.4602V28.3401H46.0502V13.4401H44.4602V11.8501H17.9302V13.4401Z" fill="white"/>
<path d="M22.9911 16.7202H21.1211V18.5902H22.9911V16.7202Z" fill="#191919"/>
<path d="M44.4597 10.3101H17.9297V11.9001H44.4597V10.3101Z" fill="#191919"/>
<path d="M42.7697 15.04H41.1797V16.63H42.7697V15.04Z" fill="#191919"/>
<path d="M27.8595 21.79H26.2695V23.38H27.8595V21.79Z" fill="#191919"/>
<path d="M26.2697 20.1899H24.6797V21.7799H26.2697V20.1899Z" fill="#191919"/>
<path d="M21.1095 25.0703H19.5195V26.6603H21.1095V25.0703Z" fill="#191919"/>
<path d="M41.0802 16.7202H39.4902V18.5902H41.0802V16.7202Z" fill="#191919"/>
<path d="M32.8308 25.0703H29.5508V26.6603H32.8308V25.0703Z" fill="#191919"/>
<path d="M24.5802 18.5H22.9902V20.09H24.5802V18.5Z" fill="#191919"/>
<path d="M24.5802 21.79H22.9902V23.38H24.5802V21.79Z" fill="#191919"/>
<path d="M22.9911 23.4702H21.1211V25.0602H22.9911V23.4702Z" fill="#191919"/>
<path d="M29.4513 23.4702H27.8613V25.0602H29.4513V23.4702Z" fill="#191919"/>
<path d="M37.8908 20.1899H36.3008V21.7799H37.8908V20.1899Z" fill="#191919"/>
<path d="M42.7697 25.0703H41.1797V26.6603H42.7697V25.0703Z" fill="#191919"/>
<path d="M39.4904 18.5H37.9004V20.09H39.4904V18.5Z" fill="#191919"/>
<path d="M34.3302 23.4702H32.7402V25.0602H34.3302V23.4702Z" fill="#191919"/>
<path d="M36.2997 21.79H34.4297V23.38H36.2997V21.79Z" fill="#191919"/>
<path d="M41.0802 23.4702H39.4902V25.0602H41.0802V23.4702Z" fill="#191919"/>
<path d="M39.4904 21.79H37.9004V23.38H39.4904V21.79Z" fill="#191919"/>
<path d="M21.1095 15.04H19.5195V16.63H21.1095V15.04Z" fill="#191919"/>
<path d="M16.2404 31.6301H46.0504V29.9401H47.6504V11.8501H44.4604V13.4401H46.0504V28.3501H44.4604V29.9401H17.9304V28.3501H16.2404V13.4401H17.9304V11.8501H14.6504V29.9401H16.2404V31.6301Z" fill="#191919"/>
<path d="M44.3595 13.4399H42.7695V15.0299H44.3595V13.4399Z" fill="#191919"/>
<path d="M19.5197 26.75H17.9297V28.34H19.5197V26.75Z" fill="#191919"/>
<path d="M44.3595 26.75H42.7695V28.34H44.3595V26.75Z" fill="#191919"/>
<path d="M19.5197 13.4399H17.9297V15.0299H19.5197V13.4399Z" fill="#191919"/>
</svg>
